<?xml version="1.0" encoding="UTF-8"?>
<!DOCTYPE svg PUBLIC "-//W3C//DTD SVG 1.1//EN" "http://www.w3.org/Graphics/SVG/1.1/DTD/svg11.dtd">
<!-- Creator: CorelDRAW 2020 (64-Bit) -->
<svg xmlns="http://www.w3.org/2000/svg" xml:space="preserve" width="210mm" height="297mm" version="1.1" style="shape-rendering:geometricPrecision; text-rendering:geometricPrecision; image-rendering:optimizeQuality; fill-rule:evenodd; clip-rule:evenodd"
viewBox="0 0 21000 29700"
 xmlns:xlink="http://www.w3.org/1999/xlink"
 xmlns:xodm="http://www.corel.com/coreldraw/odm/2003">
 <defs>
  <style type="text/css">
   <![CDATA[
    .fil0 {fill:#163D6B;fill-rule:nonzero}
   ]]>
  </style>
 </defs>
 <g id="Слой_x0020_1">
  <metadata id="CorelCorpID_0Corel-Layer"/>
  <g id="_2131220785552">
   <polygon class="fil0" points="2471.6,2733.7 2821.11,1836.86 3585.31,1836.86 3410.55,2285.29 4353.51,2285.29 4818,1093.42 1517.4,1093.42 1878.59,1836.86 2342.66,1836.86 1739.58,2192.43 1238.91,3477.15 3891.03,3477.15 4180.77,2733.7 "/>
   <polygon class="fil0" points="16474.34,1093.42 16061.06,2153.89 15296.85,2153.89 15710.13,1093.42 14767.17,1093.42 13838.2,3477.15 14781.16,3477.15 14981.47,2963.14 14981.47,2963.15 15907.03,2549.11 15545.36,3477.15 16488.32,3477.15 17417.3,1093.42 "/>
   <path class="fil0" d="M6883.24 1093.42l-1262.61 1072.45 417.94 -1072.45 -942.95 0 -928.98 2383.73 942.96 0 1258.82 -1062.72 -414.16 1062.72 942.96 0 787.8 -2021.46 247.07 381.17 594.29 0 -1355.58 1640.29 1085.88 0 1355.59 -1640.29 306.84 0 -639.25 1640.29 942.96 0 792.26 -2032.92 254.49 392.63 594.3 0 -1355.58 1640.29 1085.87 0 644.65 -780.04 500.85 466.17 -122.31 313.87 942.96 0 928.97 -2383.73 -7606.04 0zm6153.95 1306.44l0 0 -552.73 0 465.28 -563 306.85 0 -219.4 563z"/>
   <polygon class="fil0" points="19980.25,1836.86 20269.99,1093.42 17619.87,1093.42 17330.14,1836.86 18608.89,1836.86 18005.81,2192.43 17794.87,2733.7 17464.91,2733.7 17175.17,3477.15 18814.23,3477.15 19103.96,2733.7 18737.83,2733.7 19087.34,1836.86 "/>
  </g>
 </g>
</svg>
