<?xml version="1.0" encoding="UTF-8"?> <svg xmlns="http://www.w3.org/2000/svg" width="363" height="47" viewBox="0 0 363 47" fill="none"> <path d="M188.537 42.1791C193.175 44.8685 198.554 46.3904 204.288 46.3904C210.021 46.3904 215.416 44.8524 220.046 42.1791V4.42963C215.408 1.74015 210.029 0.202148 204.288 0.202148C198.546 0.202148 193.159 1.74016 188.537 4.41354V42.1791Z" fill="#B3B3B1"></path> <path d="M204.288 1.25684C198.892 1.25684 193.844 2.65794 189.455 5.11391V41.5105C193.844 43.9665 198.909 45.3676 204.288 45.3676C209.666 45.3676 214.731 43.9665 219.12 41.5105V5.13002C214.731 2.65794 209.666 1.25684 204.288 1.25684ZM218.468 40.963C214.256 43.2579 209.425 44.5704 204.279 44.5704C199.134 44.5704 194.319 43.266 190.099 40.963V5.65341C194.311 3.35849 199.142 2.04596 204.279 2.04596C209.417 2.04596 214.256 3.35044 218.468 5.65341V40.963Z" fill="#686867"></path> <path d="M190.896 27.3467V29.9154H217.687V7.64258L190.896 27.3467Z" fill="#DF0C1A"></path> <path d="M217.686 6.25711C213.652 4.23597 209.111 3.10059 204.295 3.10059C199.48 3.10059 194.939 4.23597 190.904 6.25711V27.3623L217.694 7.65822V6.25711H217.686Z" fill="#1E70B5"></path> <path d="M190.896 28.8682V40.1898C194.89 42.2995 199.448 43.5073 204.288 43.5073C209.135 43.5073 213.685 42.2995 217.679 40.1898V28.8682H190.896Z" fill="#1D1E1C"></path> <path d="M198.088 30.5598V39.353H196.759V35.7536C196.469 35.8663 196.155 35.9468 195.728 35.9468C194.835 35.9468 194.4 35.5764 194.231 35.3832C193.804 34.9 193.764 34.1592 193.764 33.7083V30.5518H195.092V33.4184C195.092 33.7083 195.092 34.2236 195.342 34.5055C195.535 34.7148 195.793 34.7551 196.002 34.7551C196.252 34.7551 196.493 34.7148 196.759 34.5618V30.5518H198.088V30.5598Z" fill="white"></path> <path d="M199.295 32.3793C199.295 32.0089 199.375 31.3647 200.012 30.8816C200.318 30.6481 200.809 30.4307 201.493 30.4307C202.033 30.4307 202.621 30.5514 203.031 30.8574C203.265 31.0265 203.772 31.4855 203.772 32.3793V33.1765C203.772 33.6677 203.748 33.9173 203.377 34.3522C203.224 34.5213 203.031 34.6662 202.838 34.7789C203.224 34.9883 203.418 35.2057 203.506 35.3668C203.756 35.7613 203.78 36.1639 203.78 36.5746V37.3798C203.78 37.9033 203.708 38.4669 203.192 38.942C202.701 39.3929 202.081 39.4896 201.477 39.4896C200.986 39.4896 200.366 39.4171 199.883 38.9823C199.786 38.9017 199.303 38.4347 199.303 37.6375V37.0497H200.632V37.3074C200.632 37.5006 200.712 37.7986 200.849 37.9516C201.018 38.1287 201.332 38.1851 201.55 38.1851C201.88 38.1851 202.089 38.0884 202.194 37.9757C202.443 37.7583 202.443 37.4684 202.443 37.1785V36.631C202.443 36.3813 202.419 35.8338 202.089 35.56C201.992 35.4795 201.783 35.3507 201.372 35.3507H200.97V34.1428H201.324C201.67 34.1428 201.992 34.022 202.178 33.8126C202.427 33.555 202.435 33.1524 202.435 32.9913V32.6773C202.435 32.4679 202.435 32.1539 202.162 31.9203C202.009 31.7996 201.791 31.711 201.501 31.711C201.252 31.711 201.034 31.8076 200.881 31.9445C200.648 32.1619 200.632 32.4276 200.632 32.629V32.9027H199.303V32.3793H199.295Z" fill="white"></path> <path d="M208.234 32.6851C208.234 32.4918 208.178 32.2503 208.057 32.0651C207.992 31.9684 207.799 31.7349 207.356 31.7349C207.01 31.7349 206.793 31.8879 206.656 32.0409C206.446 32.3147 206.438 32.6448 206.438 32.9589V37.0092C206.438 37.3152 206.438 37.597 206.615 37.8466C206.712 37.9835 206.913 38.1768 207.3 38.1768C207.59 38.1768 207.888 38.0641 208.057 37.8627C208.121 37.7661 208.25 37.5568 208.25 37.1058V37.0495H209.579V37.1622C209.579 38.0802 209.265 38.6197 209.015 38.8773C208.741 39.1833 208.194 39.5054 207.26 39.5054C206.382 39.5054 205.875 39.1511 205.569 38.8049C205.086 38.2412 205.102 37.597 205.102 37.1139V32.822C205.102 32.2019 205.182 31.5014 205.786 30.986C206.197 30.6156 206.817 30.4385 207.308 30.4385C207.872 30.4385 208.532 30.6559 208.926 31.0424C209.257 31.3725 209.53 31.9362 209.53 32.5965V32.9508H208.226V32.6851H208.234Z" fill="white"></path> <path d="M214.105 39.3527L213.759 37.6215H211.866L211.52 39.3527H210.191L212.237 30.5596H213.412L215.458 39.3527H214.105ZM212.776 32.9833L212.076 36.4378H213.493L212.776 32.9833Z" fill="white"></path> <path d="M197.016 18.5932L219.925 6.08789L203.385 18.5932H197.016Z" fill="white"></path> <path d="M211.495 16.3545L188.594 28.8678L205.117 16.3545H211.495Z" fill="white"></path> <path d="M232.891 12.6187V6.30566H234.839V20.3731H232.891V14.2533H231.763C231.095 14.2533 230.539 14.197 230.129 14.0601C229.718 13.9393 229.404 13.7299 229.178 13.44C228.961 13.1502 228.808 12.7717 228.744 12.3047C228.679 11.8376 228.631 11.2579 228.631 10.5734V6.30566H230.58V10.7828C230.58 11.1693 230.596 11.4833 230.636 11.733C230.676 11.9826 230.749 12.1597 230.853 12.2805C230.966 12.4013 231.103 12.4979 231.264 12.5382C231.441 12.5784 231.659 12.6107 231.932 12.6107H232.883V12.6187H232.891Z" fill="white"></path> <path d="M236.32 6.32227H241.619V7.95689H238.269V12.3615H241.425V13.9962H238.269V18.747H241.619V20.3817H236.32V6.32227Z" fill="white"></path> <path d="M248.865 16.3711C248.865 17.1522 248.824 17.7964 248.752 18.3037C248.688 18.8271 248.535 19.2216 248.301 19.5357C248.068 19.8497 247.754 20.0591 247.327 20.196C246.9 20.3168 246.336 20.3731 245.628 20.3731H242.455V6.30566H247.81V7.94029H244.404V12.1114H245.748C246.465 12.1114 247.021 12.1758 247.439 12.3208C247.85 12.4577 248.164 12.7073 248.374 13.0374C248.583 13.3676 248.728 13.8105 248.784 14.3419C248.833 14.8895 248.865 15.5578 248.865 16.3711ZM246.916 16.1859C246.916 15.6544 246.9 15.2277 246.86 14.9136C246.836 14.5996 246.763 14.35 246.683 14.1728C246.602 13.9957 246.481 13.8829 246.312 13.8266C246.151 13.7702 245.926 13.746 245.652 13.746H244.388V18.7304H245.595C245.869 18.7304 246.087 18.7063 246.264 18.6499C246.441 18.5936 246.57 18.4728 246.658 18.2956C246.755 18.1185 246.811 17.8608 246.852 17.5306C246.892 17.2005 246.916 16.7496 246.916 16.1859Z" fill="white"></path> <path d="M249.977 17.0157V9.90549C249.977 9.4143 250.017 8.94727 250.13 8.48828C250.226 8.03735 250.387 7.65084 250.637 7.30459C250.886 6.95834 251.217 6.70066 251.635 6.49935C252.062 6.28999 252.61 6.19336 253.27 6.19336C253.89 6.19336 254.421 6.27389 254.848 6.42688C255.275 6.57988 255.613 6.81339 255.879 7.11133C256.129 7.41732 256.314 7.77967 256.427 8.20645C256.539 8.63322 256.588 9.12442 256.588 9.67198V16.7822C256.588 17.2734 256.531 17.7404 256.435 18.1994C256.338 18.6503 256.161 19.0369 255.911 19.3831C255.662 19.7294 255.323 19.987 254.897 20.1883C254.47 20.3897 253.922 20.4943 253.262 20.4943C252.642 20.4943 252.127 20.4138 251.7 20.2608C251.273 20.1078 250.943 19.8743 250.685 19.5764C250.436 19.2704 250.25 18.908 250.138 18.4813C250.033 18.0464 249.977 17.5633 249.977 17.0157ZM251.925 9.7364V17.1204C251.925 17.7404 252.046 18.1914 252.296 18.5054C252.545 18.8195 252.875 18.9724 253.27 18.9724C253.681 18.9724 254.011 18.8195 254.26 18.5054C254.51 18.1914 254.631 17.7324 254.631 17.1204V9.7364C254.631 8.39166 254.18 7.72331 253.27 7.72331C252.36 7.72331 251.925 8.39166 251.925 9.7364Z" fill="white"></path> <path d="M257.965 6.32227H259.914V12.7319H259.954L263.03 6.32227H264.978L261.709 12.9252L265.212 20.3897H263.03L259.954 13.36H259.914V20.3897H257.965V6.32227Z" fill="white"></path> <path d="M265.68 17.0157V9.90549C265.68 9.4143 265.736 8.94727 265.833 8.48828C265.929 8.0293 266.09 7.65084 266.34 7.30459C266.59 6.95834 266.92 6.70066 267.338 6.49935C267.765 6.28999 268.313 6.19336 268.973 6.19336C269.947 6.19336 270.664 6.42688 271.115 6.87781C271.566 7.32875 271.799 7.96488 271.799 8.74595V10.1471H269.972V9.17273C269.972 8.7218 269.891 8.35945 269.722 8.10177C269.553 7.8441 269.255 7.71525 268.844 7.71525C268.337 7.71525 268.007 7.90852 267.854 8.27893C267.701 8.64934 267.636 9.26936 267.636 10.131V17.0318C267.636 17.4425 267.661 17.7726 267.717 18.0303C267.773 18.2799 267.854 18.4813 267.967 18.6181C268.079 18.755 268.2 18.8517 268.337 18.908C268.474 18.9483 268.627 18.9724 268.772 18.9724C269.142 18.9724 269.432 18.8356 269.633 18.5779C269.851 18.3041 269.947 17.8934 269.947 17.3056V16.3313H271.775V17.8934C271.775 18.2799 271.735 18.6181 271.655 18.9322C271.574 19.2462 271.421 19.52 271.204 19.7535C270.986 19.987 270.68 20.1642 270.31 20.3011C269.939 20.438 269.472 20.4943 268.909 20.4943C268.305 20.4943 267.781 20.4138 267.371 20.2608C266.96 20.1078 266.614 19.8743 266.372 19.5764C266.115 19.2704 265.937 18.908 265.825 18.4813C265.728 18.0464 265.68 17.5633 265.68 17.0157Z" fill="white"></path> <path d="M275.334 6.32227H277.597L280.464 20.3897H278.515L277.871 16.8064H274.835L274.191 20.3897H272.242L275.334 6.32227ZM275.117 15.1637H277.589L276.381 8.38367H276.341L275.117 15.1637Z" fill="white"></path> <path d="M281.389 20.3731V6.30566H284.602C285.262 6.30566 285.793 6.36204 286.204 6.47477C286.615 6.5875 286.929 6.78881 287.162 7.0787C287.396 7.36858 287.549 7.77925 287.629 8.28655C287.71 8.79385 287.742 9.47024 287.742 10.2755C287.742 11.0968 287.702 11.7571 287.629 12.2805C287.549 12.7878 287.396 13.1985 287.162 13.4884C286.929 13.7782 286.615 13.9796 286.204 14.0923C285.793 14.205 285.254 14.2614 284.602 14.2614H283.337V20.3812H281.389V20.3731ZM283.337 7.9564V12.6348H284.352C284.682 12.6348 284.94 12.6107 285.133 12.5704C285.326 12.5301 285.479 12.4174 285.584 12.2644C285.697 12.1114 285.745 11.8779 285.777 11.5638C285.809 11.2498 285.817 10.8391 285.817 10.2996C285.817 9.76013 285.801 9.3414 285.777 9.03541C285.753 8.72137 285.681 8.48785 285.584 8.33486C285.471 8.18187 285.334 8.07718 285.133 8.02887C284.94 7.9886 284.682 7.96445 284.352 7.96445H283.337V7.9564Z" fill="white"></path> <path d="M288.758 17.0157V9.90549C288.758 9.4143 288.814 8.94727 288.911 8.48828C289.007 8.0293 289.168 7.65084 289.418 7.30459C289.668 6.95834 289.998 6.70066 290.417 6.49935C290.843 6.28999 291.391 6.19336 292.051 6.19336C293.026 6.19336 293.742 6.42688 294.193 6.87781C294.644 7.32875 294.878 7.96488 294.878 8.74595V10.1471H293.05V9.17273C293.05 8.7218 292.969 8.35945 292.8 8.10177C292.639 7.8441 292.333 7.71525 291.922 7.71525C291.415 7.71525 291.085 7.90852 290.932 8.27893C290.779 8.64934 290.715 9.26936 290.715 10.131V17.0318C290.715 17.4425 290.739 17.7726 290.795 18.0303C290.851 18.2799 290.932 18.4813 291.045 18.6181C291.157 18.755 291.278 18.8517 291.415 18.908C291.552 18.9483 291.705 18.9724 291.85 18.9724C292.22 18.9724 292.51 18.8356 292.712 18.5779C292.929 18.3041 293.026 17.8934 293.026 17.3056V16.3313H294.853V17.8934C294.853 18.2799 294.813 18.6181 294.733 18.9322C294.652 19.2462 294.499 19.52 294.282 19.7535C294.064 19.987 293.758 20.1642 293.388 20.3011C293.018 20.438 292.55 20.4943 292.003 20.4943C291.383 20.4943 290.876 20.4138 290.465 20.2608C290.054 20.1078 289.708 19.8743 289.466 19.5764C289.209 19.2704 289.032 18.908 288.919 18.4813C288.814 18.0464 288.758 17.5633 288.758 17.0157Z" fill="white"></path> <path d="M295.826 6.32227H297.775V12.7319H297.815L300.891 6.32227H302.84L299.571 12.9252L303.073 20.3897H300.891L297.815 13.36H297.775V20.3897H295.826V6.32227Z" fill="white"></path> <path d="M308.422 20.3731V10.0983H308.381L306.046 20.3731H303.711V6.30566H305.563V16.5805H305.603L307.938 6.30566H310.274V20.3731H308.422Z" fill="white"></path> <path d="M318.205 20.3738H316.353V10.099H316.313L313.978 20.3738H311.643V6.30634H313.495V16.5811H313.535L315.87 6.30634H318.205V20.3738ZM317.416 3.00488C317.392 3.2223 317.336 3.47191 317.255 3.72959C317.175 3.98726 317.038 4.25299 316.852 4.48651C316.667 4.72003 316.426 4.91328 316.128 5.07433C315.83 5.23538 315.459 5.32395 315 5.32395C314.549 5.32395 314.179 5.24343 313.873 5.09044C313.567 4.93744 313.342 4.74419 313.148 4.50262C312.955 4.2691 312.818 4.01948 312.738 3.7457C312.657 3.47192 312.601 3.2223 312.585 3.00488H313.575C313.599 3.12567 313.648 3.26256 313.712 3.4075C313.776 3.54439 313.865 3.66517 313.97 3.7779C314.082 3.89063 314.219 3.97922 314.38 4.05169C314.549 4.11611 314.751 4.16442 314.968 4.16442C315.186 4.16442 315.379 4.12416 315.548 4.05169C315.709 3.97117 315.854 3.88259 315.959 3.76181C316.071 3.64907 316.168 3.52828 316.232 3.39139C316.297 3.2545 316.353 3.13372 316.385 3.00488H317.416Z" fill="white"></path> <path d="M329.252 17.024C329.252 17.6923 329.196 18.256 329.075 18.6989C328.962 19.1337 328.769 19.4961 328.511 19.7538C328.254 20.0114 327.924 20.2047 327.513 20.3174C327.102 20.4302 326.611 20.4865 326.031 20.4865C325.138 20.4865 324.413 20.2772 323.849 19.8987C323.285 19.5041 323.012 18.868 323.012 17.9742V16.5731H324.96V17.4508C324.96 17.9178 325.057 18.2882 325.234 18.562C325.411 18.8358 325.701 18.9727 326.088 18.9727C326.345 18.9727 326.555 18.9324 326.716 18.8519C326.885 18.7714 327.006 18.6425 327.086 18.4976C327.167 18.3446 327.223 18.1835 327.263 17.9742C327.287 17.7809 327.32 17.5796 327.32 17.3461V15.6873C327.32 15.3572 327.296 15.0995 327.255 14.874C327.215 14.6566 327.134 14.4875 327.006 14.3506C326.885 14.2137 326.716 14.1171 326.514 14.0607C326.297 14.0044 326.031 13.9802 325.701 13.9802H325.081V12.3456H325.701C326.289 12.3456 326.676 12.1926 326.869 11.8947C327.062 11.5887 327.159 11.0411 327.159 10.26V9.24544C327.159 8.68178 327.062 8.29526 326.885 8.05369C326.692 7.82017 326.402 7.70744 325.991 7.70744C325.621 7.70744 325.347 7.82018 325.17 8.03759C324.993 8.255 324.912 8.57709 324.912 8.97165V9.8091H323.084V8.75425C323.084 7.0391 324.034 6.18555 325.927 6.18555C326.998 6.18555 327.795 6.44322 328.326 6.96663C328.858 7.49003 329.123 8.32747 329.123 9.47896C329.123 10.1392 329.099 10.6868 329.043 11.1377C328.987 11.5806 328.882 11.9349 328.745 12.1926C328.608 12.4503 328.415 12.6596 328.181 12.7965C327.948 12.9334 327.658 13.03 327.304 13.1025V13.1428C327.61 13.1991 327.883 13.2555 328.125 13.336C328.375 13.4166 328.576 13.5857 328.753 13.8272C328.93 14.0849 329.059 14.4553 329.148 14.9546C329.204 15.4619 329.252 16.1463 329.252 17.024Z" fill="white"></path> <path d="M333.069 6.32227H335.331L338.198 20.3897H336.249L335.605 16.8064H332.569L331.925 20.3897H329.977L333.069 6.32227ZM332.851 15.1637H335.323L334.115 8.38367H334.075L332.851 15.1637Z" fill="white"></path> <path d="M339.125 20.3731V6.30566H342.515C343.119 6.30566 343.602 6.36203 343.972 6.48282C344.343 6.6036 344.633 6.7888 344.826 7.04648C345.035 7.30415 345.156 7.65042 345.221 8.10135C345.285 8.54423 345.317 9.09178 345.317 9.71987C345.317 10.4043 345.293 10.968 345.237 11.3786C345.18 11.8054 345.076 12.1356 344.939 12.3691C344.802 12.6026 344.609 12.7798 344.375 12.8925C344.142 13.0052 343.868 13.0696 343.554 13.1099V13.1502C343.94 13.2307 344.254 13.3273 344.504 13.44C344.737 13.5608 344.931 13.7299 345.068 13.9635C345.204 14.197 345.301 14.511 345.358 14.8814C345.414 15.2679 345.438 15.7591 345.438 16.3469C345.438 17.1119 345.398 17.7481 345.325 18.2715C345.261 18.7788 345.108 19.1894 344.874 19.5035C344.641 19.8175 344.327 20.0349 343.9 20.1638C343.473 20.2926 342.91 20.357 342.201 20.357H339.141V20.3731H339.125ZM341.074 7.83562V12.353H342.201C342.491 12.353 342.724 12.3288 342.885 12.2886C343.063 12.2483 343.191 12.1356 343.272 11.9584C343.352 11.7813 343.409 11.5316 343.433 11.1854C343.457 10.8391 343.473 10.3882 343.473 9.82455C343.473 9.42998 343.457 9.09983 343.417 8.8341C343.377 8.58448 343.304 8.38317 343.199 8.23018C343.087 8.07718 342.942 7.98055 342.749 7.91613C342.555 7.85977 342.298 7.83562 341.992 7.83562H341.074ZM341.074 13.8668V18.8512H342.282C342.555 18.8512 342.773 18.8271 342.95 18.7707C343.127 18.7143 343.256 18.5936 343.344 18.4164C343.441 18.2393 343.497 17.9735 343.522 17.6434C343.546 17.3132 343.578 16.8623 343.578 16.3147C343.578 15.7752 343.562 15.3565 343.522 15.0344C343.497 14.7204 343.425 14.4707 343.344 14.2936C343.264 14.1164 343.143 14.0037 342.974 13.9473C342.813 13.891 342.587 13.8668 342.314 13.8668H341.074Z" fill="white"></path> <path d="M346.645 17.0157V9.90549C346.645 9.4143 346.701 8.94727 346.798 8.48828C346.894 8.0293 347.055 7.65084 347.305 7.30459C347.538 6.95834 347.885 6.70066 348.303 6.49935C348.73 6.28999 349.278 6.19336 349.938 6.19336C350.558 6.19336 351.089 6.27389 351.516 6.42688C351.943 6.57988 352.289 6.81339 352.547 7.11133C352.797 7.41732 352.99 7.77967 353.094 8.20645C353.207 8.63322 353.256 9.12442 353.256 9.67198V16.7822C353.256 17.2734 353.215 17.7404 353.103 18.1994C353.006 18.6503 352.829 19.0369 352.579 19.3831C352.329 19.7294 351.991 19.987 351.565 20.1883C351.138 20.3897 350.59 20.4943 349.93 20.4943C349.302 20.4943 348.795 20.4138 348.368 20.2608C347.941 20.1078 347.611 19.8743 347.353 19.5764C347.104 19.2704 346.918 18.908 346.806 18.4813C346.701 18.0464 346.645 17.5633 346.645 17.0157ZM348.593 9.7364V17.1204C348.593 17.7404 348.714 18.1914 348.964 18.5054C349.213 18.8195 349.543 18.9724 349.938 18.9724C350.349 18.9724 350.679 18.8195 350.928 18.5054C351.178 18.1914 351.299 17.7324 351.299 17.1204V9.7364C351.299 8.39166 350.848 7.72331 349.938 7.72331C349.044 7.72331 348.593 8.39166 348.593 9.7364Z" fill="white"></path> <path d="M362.999 23.9325H361.05V20.3895H355.929V23.9325H353.98V18.7468H354.737C355.108 18.1429 355.406 17.4745 355.639 16.7015C355.873 15.9285 356.034 15.1072 356.163 14.2294C356.292 13.3517 356.356 12.4016 356.396 11.4272C356.436 10.4368 356.453 9.42219 356.453 8.39149V6.33008H361.968V18.7629H362.999V23.9325ZM360.02 18.7388V7.94861H358.361V8.72969C358.361 9.72818 358.361 10.7025 358.345 11.6527C358.329 12.6029 358.289 13.5047 358.192 14.3583C358.111 15.2118 357.974 16.0171 357.797 16.7579C357.62 17.4987 357.346 18.159 357 18.7307H360.02V18.7388Z" fill="white"></path> <path d="M228.525 36.8331V29.7229C228.525 29.2317 228.582 28.7647 228.678 28.3057C228.775 27.8467 228.936 27.4682 229.186 27.122C229.419 26.7757 229.765 26.518 230.184 26.3167C230.611 26.1074 231.159 26.0107 231.819 26.0107C232.793 26.0107 233.51 26.2443 233.961 26.6952C234.412 27.1461 234.645 27.7823 234.645 28.5633V29.9644H232.817V28.9901C232.817 28.5392 232.737 28.1768 232.568 27.9192C232.407 27.6615 232.101 27.5326 231.69 27.5326C231.183 27.5326 230.853 27.7259 230.7 28.0963C230.547 28.4667 230.482 29.0867 230.482 29.9483V36.8492C230.482 37.2599 230.506 37.6061 230.563 37.8477C230.619 38.0973 230.7 38.2986 230.812 38.4355C230.925 38.5724 231.046 38.669 231.183 38.7254C231.32 38.7657 231.473 38.7979 231.626 38.7979C231.98 38.7979 232.286 38.661 232.487 38.4033C232.705 38.1456 232.801 37.7189 232.801 37.131V36.1567H234.629V37.7189C234.629 38.1054 234.589 38.4436 234.508 38.7576C234.428 39.0717 234.275 39.3454 234.057 39.579C233.84 39.8125 233.534 39.9896 233.164 40.1265C232.793 40.2473 232.326 40.3198 231.779 40.3198C231.159 40.3198 230.651 40.2393 230.241 40.0863C229.83 39.9333 229.484 39.6997 229.242 39.4018C228.992 39.0958 228.807 38.7254 228.695 38.3067C228.582 37.8558 228.525 37.3807 228.525 36.8331Z" fill="white"></path> <path d="M240.273 40.2071V29.9162H240.233L237.89 40.2071H235.555V26.1396H237.407V36.4306H237.447L239.782 26.1396H242.117V40.2071H240.273Z" fill="white"></path> <path d="M250.211 26.1389V40.2064H248.262V27.7735H246.233V31.3971C246.233 32.5888 246.201 33.6437 246.16 34.5536C246.12 35.4555 246.04 36.2446 245.943 36.8968C245.846 37.5571 245.725 38.0886 245.572 38.5154C245.42 38.9421 245.242 39.2562 245.033 39.4736C244.703 39.8198 244.405 40.0212 244.115 40.0936C243.825 40.1581 243.487 40.2064 243.084 40.2064H242.811V38.5717H242.851C243.028 38.5717 243.181 38.5476 243.302 38.4912C243.423 38.4348 243.535 38.3382 243.648 38.2013C243.785 38.0081 243.906 37.7182 243.994 37.3478C244.075 36.9774 244.147 36.4701 244.171 35.8339C244.212 35.2058 244.236 34.4087 244.252 33.4746C244.268 32.5244 244.268 31.4051 244.268 30.0685V26.1309H250.211V26.1389Z" fill="white"></path> <path d="M251.387 36.8331V29.7229C251.387 29.2317 251.443 28.7647 251.54 28.3057C251.636 27.8467 251.797 27.4682 252.047 27.122C252.281 26.7757 252.627 26.518 253.046 26.3167C253.464 26.1154 254.02 26.0107 254.68 26.0107C255.3 26.0107 255.832 26.0913 256.258 26.2443C256.685 26.3973 257.023 26.6308 257.289 26.9287C257.539 27.2347 257.732 27.5971 257.837 28.0238C257.949 28.4506 257.998 28.9418 257.998 29.4894V36.5996C257.998 37.0908 257.941 37.5578 257.845 38.0168C257.748 38.4758 257.571 38.8542 257.321 39.2005C257.072 39.5467 256.733 39.8044 256.307 40.0057C255.88 40.2151 255.332 40.3117 254.672 40.3117C254.052 40.3117 253.529 40.2312 253.11 40.0782C252.691 39.9252 252.353 39.6917 252.095 39.3938C251.838 39.0878 251.652 38.7254 251.548 38.2986C251.443 37.8558 251.387 37.3807 251.387 36.8331ZM253.335 29.5699V36.9539C253.335 37.5739 253.456 38.0248 253.706 38.3389C253.955 38.6529 254.286 38.8059 254.68 38.8059C255.091 38.8059 255.421 38.6529 255.671 38.3389C255.92 38.0248 256.041 37.5739 256.041 36.9539V29.5699C256.041 28.2251 255.59 27.5407 254.68 27.5407C253.794 27.5407 253.335 28.209 253.335 29.5699Z" fill="white"></path> <path d="M259.373 40.2071V26.1396H262.763C263.367 26.1396 263.85 26.196 264.221 26.3168C264.591 26.4295 264.881 26.6228 265.074 26.8805C265.267 27.1381 265.404 27.5005 265.477 27.9353C265.541 28.3701 265.573 28.9097 265.573 29.5538C265.573 30.2383 265.549 30.802 265.493 31.2126C265.436 31.6394 265.332 31.9695 265.187 32.2031C265.05 32.4366 264.857 32.6137 264.639 32.7265C264.406 32.8392 264.132 32.9036 263.818 32.9439V32.9841C264.204 33.0647 264.519 33.1613 264.768 33.274C265.002 33.3948 265.195 33.5639 265.332 33.7974C265.469 34.0309 265.565 34.345 265.622 34.7154C265.678 35.0858 265.702 35.5931 265.702 36.1809C265.702 36.9459 265.662 37.5901 265.589 38.1054C265.525 38.6127 265.372 39.0234 265.139 39.3375C264.905 39.6515 264.591 39.877 264.164 39.9977C263.737 40.1185 263.174 40.191 262.465 40.191H259.389V40.2071H259.373ZM261.322 27.6615V32.1789H262.449C262.739 32.1789 262.972 32.1548 263.134 32.1064C263.311 32.0662 263.44 31.9534 263.52 31.7763C263.601 31.5991 263.657 31.3495 263.689 31.0113C263.721 30.6731 263.729 30.2141 263.729 29.6505C263.729 29.2559 263.713 28.9258 263.673 28.66C263.633 28.4104 263.56 28.2091 263.456 28.0561C263.343 27.9031 263.198 27.8065 263.005 27.7421C262.811 27.6857 262.554 27.6615 262.248 27.6615H261.322ZM261.322 33.6847V38.6691H262.53C262.803 38.6691 263.021 38.645 263.198 38.5886C263.375 38.5322 263.504 38.4114 263.592 38.2343C263.689 38.0571 263.745 37.7914 263.786 37.4613C263.826 37.1311 263.842 36.6802 263.842 36.1326C263.842 35.5931 263.826 35.1744 263.786 34.8523C263.745 34.5383 263.689 34.2886 263.609 34.1115C263.528 33.9343 263.399 33.8216 263.238 33.7652C263.069 33.7089 262.852 33.6847 262.578 33.6847H261.322Z" fill="white"></path> <path d="M273.168 36.1885C273.168 36.9696 273.127 37.6138 273.055 38.1211C272.99 38.6284 272.837 39.039 272.604 39.3531C272.37 39.6671 272.056 39.8765 271.63 39.9973C271.203 40.118 270.639 40.1905 269.931 40.1905H266.951V26.123H268.9V31.9288H270.051C270.768 31.9288 271.324 32.0013 271.742 32.1462C272.153 32.2831 272.459 32.5327 272.676 32.8629C272.894 33.193 273.023 33.6278 273.087 34.1674C273.151 34.6988 273.168 35.3752 273.168 36.1885ZM268.9 33.5795V38.5639H269.914C270.188 38.5639 270.406 38.5398 270.583 38.4834C270.76 38.427 270.889 38.3063 270.977 38.1291C271.066 37.952 271.13 37.6943 271.155 37.3641C271.179 37.034 271.211 36.583 271.211 36.0355C271.211 35.496 271.195 35.0773 271.155 34.7632C271.114 34.4492 271.058 34.1996 270.977 34.0224C270.897 33.8453 270.768 33.7325 270.607 33.6762C270.446 33.6198 270.22 33.5956 269.947 33.5956H268.9V33.5795ZM274.126 26.1392H276.074V40.2066H274.126V26.1392Z" fill="white"></path> <path d="M279.972 32.8953L277.145 26.1475H279.207L281.034 31.0997L282.862 26.1475H284.811L282.009 33.1047L284.916 40.2149H282.846L280.938 35.0534L278.876 40.2149H276.928L279.972 32.8953Z" fill="white"></path> <path d="M292.01 26.1396H294.273L297.139 40.2071H295.191L294.547 36.6238H291.511L290.867 40.2071H288.918L292.01 26.1396ZM291.793 34.9811H294.265L293.057 28.201H293.017L291.793 34.9811Z" fill="white"></path> <path d="M298.066 26.1396H303.365V27.7743H300.015V40.2071H298.066V26.1396Z" fill="white"></path> <path d="M304.193 40.2071V26.1396H307.406C308.067 26.1396 308.598 26.196 309.009 26.3007C309.419 26.4134 309.733 26.6147 309.967 26.9046C310.2 27.1945 310.353 27.6052 310.434 28.1125C310.514 28.6198 310.547 29.2962 310.547 30.1175C310.547 30.9389 310.506 31.5991 310.434 32.1225C310.361 32.6459 310.2 33.0405 309.967 33.3304C309.733 33.6203 309.419 33.8216 309.009 33.9343C308.598 34.0471 308.059 34.1034 307.406 34.1034H306.142V40.2232H304.193V40.2071ZM306.142 27.7743V32.4527H307.157C307.487 32.4527 307.744 32.4285 307.938 32.3802C308.131 32.34 308.284 32.2272 308.389 32.0742C308.501 31.9212 308.558 31.6877 308.582 31.3737C308.606 31.0596 308.622 30.649 308.622 30.1095C308.622 29.5699 308.606 29.1512 308.582 28.8452C308.558 28.5312 308.501 28.2977 308.389 28.1447C308.276 27.9917 308.131 27.887 307.938 27.8387C307.744 27.7984 307.487 27.7743 307.157 27.7743H306.142Z" fill="white"></path> <path d="M311.771 26.1396H317.07V27.7743H313.72V32.1789H316.877V33.8135H313.72V38.5644H317.07V40.1991H311.771V26.1396Z" fill="white"></path> <path d="M317.906 26.1396H323.205V27.7743H319.855V40.2071H317.906V26.1396Z" fill="white"></path> <path d="M326.636 26.1396H328.898L331.749 40.2071H329.8L329.156 36.6238H326.12L325.476 40.2071H323.527L326.636 26.1396ZM326.426 34.9811H328.898L327.69 28.201H327.65L326.426 34.9811Z" fill="white"></path> <path d="M332.094 26.1396H338.721V27.7743H336.386V40.2071H334.437V27.7743H332.102V26.1396H332.094Z" fill="white"></path> <path d="M339.494 36.8331V29.7229C339.494 29.2317 339.551 28.7647 339.647 28.3057C339.744 27.8547 339.905 27.4682 340.154 27.122C340.388 26.7757 340.734 26.518 341.153 26.3167C341.572 26.1154 342.127 26.0107 342.788 26.0107C343.408 26.0107 343.939 26.0913 344.366 26.2443C344.793 26.3973 345.131 26.6308 345.397 26.9287C345.646 27.2347 345.831 27.5971 345.944 28.0238C346.057 28.4506 346.105 28.9418 346.105 29.4894V36.5996C346.105 37.0908 346.049 37.5578 345.952 38.0168C345.856 38.4758 345.678 38.8542 345.429 39.2005C345.179 39.5467 344.841 39.8044 344.414 40.0057C343.987 40.2151 343.44 40.3117 342.78 40.3117C342.151 40.3117 341.628 40.2312 341.217 40.0782C340.791 39.9252 340.46 39.6917 340.203 39.3938C339.953 39.0878 339.768 38.7254 339.655 38.2986C339.551 37.8558 339.494 37.3807 339.494 36.8331ZM341.443 29.5699V36.9539C341.443 37.5739 341.564 38.0248 341.813 38.3389C342.063 38.6529 342.393 38.8059 342.788 38.8059C343.198 38.8059 343.528 38.6529 343.778 38.3389C344.028 38.0248 344.148 37.5739 344.148 36.9539V29.5699C344.148 28.2251 343.697 27.5407 342.788 27.5407C341.894 27.5407 341.443 28.209 341.443 29.5699Z" fill="white"></path> <path d="M347.482 40.2071V26.1396H350.872C351.46 26.1396 351.96 26.196 352.33 26.3168C352.7 26.4295 352.99 26.6228 353.184 26.8805C353.393 27.1381 353.514 27.5005 353.578 27.9353C353.642 28.3701 353.675 28.9097 353.675 29.5538C353.675 30.2383 353.651 30.802 353.594 31.2126C353.538 31.6394 353.425 31.9695 353.288 32.2031C353.151 32.4366 352.958 32.6137 352.725 32.7265C352.507 32.8392 352.217 32.9036 351.903 32.9439V32.9841C352.29 33.0647 352.604 33.1613 352.853 33.274C353.103 33.3948 353.28 33.5639 353.417 33.7974C353.554 34.0309 353.651 34.345 353.707 34.7154C353.763 35.1019 353.787 35.5931 353.787 36.1809C353.787 36.9459 353.747 37.5901 353.675 38.1054C353.61 38.6127 353.457 39.0234 353.224 39.3375C352.99 39.6515 352.676 39.877 352.249 39.9977C351.823 40.1185 351.259 40.191 350.55 40.191H347.49V40.2071H347.482ZM349.431 27.6615V32.1789H350.558C350.848 32.1789 351.082 32.1548 351.243 32.1064C351.42 32.0662 351.549 31.9534 351.629 31.7763C351.71 31.5991 351.766 31.3495 351.79 31.0113C351.815 30.6731 351.831 30.2141 351.831 29.6505C351.831 29.2559 351.815 28.9258 351.774 28.66C351.734 28.4104 351.662 28.2091 351.557 28.0561C351.444 27.9031 351.299 27.8065 351.106 27.7421C350.913 27.6857 350.655 27.6615 350.349 27.6615H349.431ZM349.431 33.6847V38.6691H350.639C350.913 38.6691 351.13 38.645 351.307 38.5886C351.484 38.5322 351.613 38.4114 351.702 38.2343C351.799 38.0571 351.855 37.7914 351.879 37.4613C351.903 37.1311 351.935 36.6802 351.935 36.1326C351.935 35.5931 351.919 35.1744 351.879 34.8523C351.839 34.5383 351.782 34.2886 351.702 34.1115C351.621 33.9343 351.501 33.8216 351.331 33.7652C351.17 33.7089 350.945 33.6847 350.687 33.6847H349.431Z" fill="white"></path> <path d="M170 0V47" stroke="#C6C5C5" stroke-miterlimit="10"></path> <path d="M9.69226 45.3985C9.49858 45.5036 9.3049 45.599 9.10314 45.6792C8.90139 45.7514 8.69964 45.8156 8.50595 45.8637C8.31227 45.9118 8.12665 45.9511 7.94104 45.9687C7.76349 45.992 7.59402 46 7.44956 46C7.24781 46 7.02911 45.992 6.80395 45.9767C6.57799 45.9607 6.35122 45.9278 6.13413 45.8717C5.91543 45.8228 5.69834 45.7514 5.48771 45.6552C5.27788 45.5597 5.09308 45.4386 4.91473 45.2855C4.75413 45.1491 4.60806 44.9976 4.47894 44.8204C4.35062 44.6527 4.23683 44.4523 4.13999 44.2437C4.04396 44.0272 3.97052 43.7939 3.9221 43.5453C3.87287 43.2903 3.84139 43.016 3.84139 42.7121C3.84139 42.2389 3.9221 41.805 4.0835 41.4041C4.2449 41.0111 4.48701 40.6511 4.80901 40.3295C4.96234 40.1779 5.13988 40.0488 5.32631 39.9365C5.51918 39.8251 5.72094 39.736 5.93157 39.6639C6.14946 39.5917 6.37542 39.5452 6.60946 39.5043C6.84349 39.4634 7.0856 39.4481 7.33497 39.4481C7.73041 39.4481 8.1097 39.4891 8.48174 39.5684C8.85296 39.6486 9.21531 39.7769 9.57847 39.9534L9.19191 41.0921C8.89332 40.9309 8.59472 40.8098 8.29613 40.7304C7.99753 40.6511 7.69086 40.6102 7.38419 40.6102C7.10093 40.6102 6.82736 40.643 6.56023 40.7152C6.29311 40.7874 6.06069 40.9157 5.85893 41.1162C5.68058 41.2934 5.53613 41.5172 5.42315 41.7898C5.30936 42.0625 5.26174 42.368 5.26174 42.7048C5.26174 43.0569 5.31743 43.3785 5.43122 43.6664C5.5442 43.9543 5.7056 44.1804 5.90736 44.3552C6.02841 44.4523 6.14139 44.5324 6.26244 44.5966C6.38269 44.6527 6.50455 44.7017 6.64174 44.7329C6.77086 44.7658 6.91613 44.7891 7.06139 44.7971C7.20746 44.8051 7.36805 44.8131 7.53753 44.8131C7.69086 44.8131 7.83613 44.7971 7.99027 44.7738C8.14279 44.749 8.29693 44.7097 8.45027 44.6608C8.60279 44.6118 8.74805 44.5653 8.88605 44.4932C9.03131 44.429 9.16044 44.3552 9.28956 44.2831L9.69226 45.3985ZM15.3325 42.3993L15.3971 41.6463H15.3648L14.9056 42.3921L12.194 45.8805H11.2014V39.57H12.541V42.9623L12.4603 43.7562H12.5088L13.001 42.9775L15.6803 39.5612H16.6891V45.8717H15.3414V42.3993H15.3325ZM22.5311 40.7393H20.8614C20.8291 41.3095 20.7968 41.8307 20.7565 42.2886C20.7153 42.7441 20.6677 43.1627 20.6031 43.5228C20.5386 43.8925 20.4579 44.2117 20.361 44.494C20.2642 44.7746 20.1423 45.0313 19.9898 45.255C19.8929 45.3913 19.78 45.5044 19.6589 45.5918C19.5379 45.6792 19.4168 45.7514 19.2958 45.8003C19.1755 45.8492 19.0537 45.8877 18.9326 45.9054C18.8124 45.9214 18.6986 45.9367 18.5937 45.9367C18.4734 45.9367 18.3515 45.9286 18.2466 45.9054C18.1417 45.8805 18.0368 45.8492 17.94 45.8003L18.0852 44.6848C18.1498 44.7097 18.2305 44.7177 18.3193 44.7177C18.4242 44.7177 18.5291 44.6944 18.6259 44.6455C18.7308 44.5966 18.8196 44.5172 18.9003 44.4122C18.9972 44.2839 19.0859 44.093 19.1666 43.8436C19.2481 43.5942 19.3127 43.2734 19.3773 42.8805C19.4329 42.4891 19.4822 42.024 19.5225 41.469C19.5629 40.9237 19.5871 40.283 19.5952 39.5532H23.8723V45.8637H22.5327V40.7393H22.5311ZM29.5521 44.5324H26.9132L26.3402 45.8717H24.9925L27.7678 39.5203H28.7524L31.5366 45.8717H30.1162L29.5521 44.5324ZM27.3732 43.4819H29.1083L28.5514 42.1675L28.269 41.3576H28.2286L27.9381 42.1828L27.3732 43.4819ZM39.2605 43.2734H36.4521V45.8717H35.1133V39.5612H36.4521V42.0954H39.2605V39.5612H40.6082V45.8717H39.2605V43.2734ZM46.33 44.5324H43.6911L43.1181 45.8717H41.7703L44.5457 39.5203H45.5302L48.3144 45.8717H46.8941L46.33 44.5324ZM44.151 43.4819H45.8861L45.3293 42.1675L45.0468 41.3576H45.0065L44.716 42.1828L44.151 43.4819ZM49.5427 45.8797V39.5692H50.8824V44.7017H53.1097V39.5692H54.4575V44.7017H56.6848V39.5692H58.0245V45.8797H49.5427ZM64.1731 42.3993L64.2377 41.6463H64.2062L63.7462 42.3921L61.0346 45.8805H60.0428V39.57H61.3825V42.9623L61.3009 43.7562H61.3502L61.8417 42.9775L64.5209 39.5612H65.5297V45.8717H64.182V42.3993H64.1731ZM69.0717 42.672L66.9581 39.5692H68.5802L69.7343 41.3504L70.0329 41.8315L70.3315 41.3504L71.5904 39.5692H73.0672L70.8399 42.5926L73.1722 45.8805H71.567L70.2104 43.9647L69.8884 43.4996L69.5729 43.9647L68.2413 45.8797H66.7645L69.0717 42.672ZM81.8952 40.7393H79.692V45.8717H78.3443V40.7393H76.1492V39.5692H81.8871V40.7393H81.8952ZM83.2034 39.5692H87.851V40.7393H84.543V42.1114H87.5927V43.2814H84.543V44.7017H87.8921V45.8717H83.2034V39.5692ZM91.1848 42.672L89.0696 39.5692H90.6917L91.8473 41.3504L92.1451 41.8315L92.4429 41.3504L93.7027 39.5692H95.1795L92.9521 42.5926L95.2852 45.8805H93.6792L92.3235 43.9647L92.0006 43.4996L91.6851 43.9647L90.3535 45.8805H88.8767L91.1848 42.672ZM100.667 43.2734H97.8588V45.8717H96.5191V39.5612H97.8588V42.0954H100.667V39.5612H102.015V45.8717H100.667V43.2734ZM103.539 42.7281C103.539 42.2068 103.613 41.7417 103.765 41.3327C103.918 40.9237 104.136 40.5797 104.41 40.299C104.686 40.0183 105.025 39.809 105.411 39.6567C105.798 39.5051 106.235 39.4329 106.711 39.4329C107.219 39.4329 107.663 39.5131 108.059 39.6647C108.454 39.8178 108.783 40.0496 109.059 40.3383C109.334 40.6278 109.544 40.9726 109.688 41.3736C109.832 41.7746 109.906 42.2148 109.906 42.7048C109.906 43.1932 109.833 43.6431 109.688 44.0441C109.543 44.445 109.334 44.7971 109.059 45.0778C108.783 45.3673 108.454 45.5918 108.059 45.7434C107.663 45.8966 107.21 45.9848 106.711 45.9848C106.235 45.9848 105.798 45.9126 105.411 45.7594C105.024 45.6079 104.686 45.3993 104.41 45.1187C104.128 44.838 103.919 44.494 103.765 44.093C103.612 43.692 103.539 43.2501 103.539 42.7281ZM104.951 42.7209C104.951 43.0809 104.992 43.3945 105.08 43.6672C105.162 43.9318 105.282 44.1572 105.436 44.3248C105.588 44.502 105.775 44.6303 105.992 44.7097C106.21 44.7971 106.452 44.838 106.718 44.838C107.024 44.838 107.282 44.7819 107.509 44.6768C107.734 44.5734 107.913 44.4202 108.058 44.2285C108.203 44.0441 108.307 43.8179 108.379 43.5549C108.453 43.2902 108.485 43.016 108.485 42.7201C108.485 42.4241 108.453 42.1419 108.379 41.8868C108.306 41.6302 108.202 41.4041 108.058 41.2212C107.913 41.0368 107.727 40.8844 107.509 40.7794C107.29 40.6743 107.023 40.6198 106.718 40.6198C106.452 40.6198 106.209 40.6591 105.992 40.7481C105.774 40.8355 105.588 40.9646 105.436 41.1322C105.282 41.3095 105.161 41.5252 105.08 41.7898C105 42.0553 104.951 42.368 104.951 42.7209ZM114.846 40.7393H113.176C113.143 41.3095 113.111 41.8307 113.07 42.2886C113.031 42.7441 112.982 43.1627 112.918 43.5228C112.853 43.8925 112.772 44.2117 112.675 44.494C112.579 44.7746 112.457 45.0313 112.304 45.255C112.207 45.3913 112.095 45.5044 111.973 45.5918C111.852 45.6792 111.731 45.7514 111.61 45.8003C111.49 45.8492 111.368 45.8877 111.247 45.9054C111.126 45.9286 111.014 45.9367 110.908 45.9367C110.787 45.9367 110.665 45.9286 110.561 45.9054C110.455 45.8805 110.351 45.8492 110.254 45.8003L110.399 44.6848C110.464 44.7097 110.546 44.7177 110.634 44.7177C110.74 44.7177 110.836 44.6944 110.941 44.6455C111.045 44.5966 111.133 44.5172 111.216 44.4122C111.312 44.2839 111.401 44.093 111.482 43.8436C111.563 43.5942 111.627 43.2734 111.692 42.8805C111.748 42.4891 111.796 42.024 111.837 41.469C111.877 40.9237 111.902 40.283 111.91 39.5532H116.188V45.8637H114.848V40.7393H114.846ZM117.661 42.7281C117.661 42.2068 117.736 41.7417 117.888 41.3327C118.041 40.9237 118.259 40.5797 118.533 40.299C118.809 40.0183 119.148 39.809 119.534 39.6567C119.921 39.5051 120.358 39.4329 120.834 39.4329C121.341 39.4329 121.786 39.5131 122.181 39.6647C122.577 39.8178 122.906 40.0496 123.182 40.3383C123.457 40.6278 123.666 40.9726 123.811 41.3736C123.955 41.7746 124.029 42.2148 124.029 42.7048C124.029 43.1932 123.956 43.6431 123.811 44.0441C123.666 44.445 123.457 44.7971 123.182 45.0778C122.906 45.3673 122.577 45.5918 122.181 45.7434C121.786 45.8966 121.333 45.9848 120.834 45.9848C120.358 45.9848 119.921 45.9126 119.534 45.7594C119.147 45.6079 118.809 45.3993 118.533 45.1187C118.25 44.838 118.041 44.494 117.888 44.093C117.735 43.692 117.661 43.2501 117.661 42.7281ZM119.083 42.7209C119.083 43.0809 119.123 43.3945 119.212 43.6672C119.293 43.9318 119.414 44.1572 119.567 44.3248C119.719 44.502 119.906 44.6303 120.123 44.7097C120.341 44.7971 120.583 44.838 120.849 44.838C121.155 44.838 121.413 44.7819 121.64 44.6768C121.865 44.5734 122.043 44.4202 122.189 44.2285C122.334 44.0441 122.44 43.8179 122.512 43.5549C122.584 43.2902 122.616 43.016 122.616 42.7201C122.616 42.4241 122.584 42.1419 122.512 41.8868C122.439 41.6302 122.333 41.4041 122.189 41.2212C122.043 41.0368 121.858 40.8844 121.64 40.7794C121.421 40.6743 121.154 40.6198 120.849 40.6198C120.583 40.6198 120.34 40.6591 120.123 40.7481C119.905 40.8355 119.719 40.9646 119.567 41.1322C119.414 41.3095 119.292 41.5252 119.212 41.7898C119.131 42.0553 119.083 42.368 119.083 42.7209ZM130.26 40.7393H126.952V45.8717H125.604V39.5612H130.252V40.7393H130.26ZM135.804 42.3993L135.868 41.6463H135.837L135.377 42.3921L132.657 45.8805H131.665V39.57H133.004V42.9623L132.922 43.7562H132.971L133.463 42.9775L136.142 39.5612H137.151V45.8717H135.803V42.3993H135.804ZM143.269 42.3993L143.333 41.6463H143.294L142.834 42.3921L140.113 45.8805H139.122V39.57H140.46V42.9623L140.379 43.7562H140.428L140.92 42.9775L143.599 39.5612H144.608V45.8717H143.26V42.3993H143.269ZM141.324 37.7488C141.357 37.9325 141.438 38.068 141.567 38.1498C141.696 38.23 141.856 38.2685 142.058 38.2685C142.495 38.2685 142.744 38.1009 142.793 37.7641L143.889 37.9156C143.817 38.3086 143.625 38.5893 143.317 38.7585C143.01 38.9261 142.583 39.0151 142.042 39.0151C141.776 39.0151 141.533 38.9983 141.308 38.9662C141.083 38.9333 140.888 38.8692 140.719 38.789C140.55 38.7088 140.413 38.5965 140.307 38.4602C140.203 38.3238 140.13 38.1562 140.105 37.9405L141.324 37.7488ZM9.7883 18.9505L12.5644 11.8694H18.6251L17.2371 15.406H24.7181L28.3989 6.00722H2.21929L5.085 11.8694H8.765L3.9794 14.6762L0 24.8047H21.047L23.3478 18.9505H9.7883ZM120.889 6.00803L117.606 14.3723H111.546L114.821 6.00803H107.34L99.9715 24.8047H107.453L109.05 20.7469L116.388 17.491L113.522 24.8039H121.003L128.372 6.00722H120.889V6.00803ZM44.7975 6.00803L34.7824 14.4685L38.0984 6.00803H30.6174L23.2404 24.8047H30.7223L40.7132 16.4333L37.4205 24.8047H44.9024L51.1568 8.86213L53.1178 11.8614H57.8308L47.0732 24.7967H55.693L66.4497 11.8694H68.8877L63.8196 24.8047H71.3015L77.5882 8.77472L79.6138 11.8694H84.3267L73.5692 24.8047H82.1881L87.3046 18.6538L91.2832 22.3267L90.3156 24.7967H97.7966L105.174 6H44.816V6.00803H44.7975ZM93.6211 16.3122H89.2318L92.9279 11.8782H95.3651L93.6211 16.3122ZM148.708 11.8694L151 6.00722H129.978L127.676 11.8694H137.829L133.043 14.6762L131.364 18.9505H128.742L126.45 24.8047H139.46L141.752 18.9505H138.845L141.622 11.8694H148.708Z" fill="white"></path> </svg> 